<svg width="23" height="152" viewBox="0 0 23 152" fill="none" xmlns="http://www.w3.org/2000/svg">
<path d="M9.98524 151.061C10.571 151.646 11.5208 151.646 12.1066 151.061L21.6525 141.515C22.2383 140.929 22.2383 139.979 21.6525 139.393C21.0667 138.808 20.117 138.808 19.5312 139.393L11.0459 147.879L2.56062 139.393C1.97483 138.808 1.02508 138.808 0.439296 139.393C-0.146491 139.979 -0.14649 140.929 0.439296 141.515L9.98524 151.061ZM11.0459 150L12.5459 150L12.5459 -6.55671e-08L11.0459 0L9.54589 6.55671e-08L9.5459 150L11.0459 150Z" fill="url(#paint0_linear_42001_1185)"/>
<defs>
<linearGradient id="paint0_linear_42001_1185" x1="11.5459" y1="-2.18557e-08" x2="11.5459" y2="150" gradientUnits="userSpaceOnUse">
<stop stop-color="#EFEFEF" stop-opacity="0"/>
<stop offset="1" stop-color="#EFEFEF"/>
</linearGradient>
</defs>
</svg>
