<svg preserveAspectRatio="none" width="100%" height="100%" overflow="visible" style="display: block;" viewBox="0 0 36.7939 25.0735" fill="none" xmlns="http://www.w3.org/2000/svg">
<g id="Group">
<path id="Vector" d="M36.012 10.9529L22.2545 0.414919C20.938 -0.591191 19.0407 0.345969 19.0407 2.00743V5.25561L1.41995 10.6194C0.55768 10.8839 0 11.637 0 12.5339C0 13.4364 0.55768 14.1838 1.42003 14.4483L19.0408 19.8179V23.0661C19.0408 24.7276 20.938 25.6647 22.2546 24.6586L36.012 14.1264C36.5064 13.7469 36.7939 13.1663 36.7939 12.5397C36.7938 11.913 36.5063 11.3323 36.012 10.9529ZM19.0408 18.6164L1.75342 13.3503C1.31078 13.2123 1.1498 12.8386 1.1498 12.5339C1.1498 12.2293 1.31078 11.8556 1.75342 11.7233L19.0407 6.45722V18.6164H19.0408Z" fill="var(--fill-0, white)"/>
</g>
</svg>
