<svg preserveAspectRatio="none" width="100%" height="100%" overflow="visible" style="display: block;" viewBox="0 0 30 30" fill="none" xmlns="http://www.w3.org/2000/svg">
<g id="social" clip-path="url(#clip0_0_21)">
<path id="Vector" d="M29.9707 8.82008C29.9004 7.22607 29.6426 6.1302 29.2733 5.18061C28.8924 4.17265 28.3064 3.27022 27.5385 2.52002C26.7883 1.75816 25.88 1.16615 24.8837 0.791171C23.9286 0.421912 22.8384 0.164141 21.2444 0.0938606C19.6385 0.0176281 19.1287 7.90368e-07 15.0556 7.90368e-07C10.9826 7.90368e-07 10.4727 0.0176281 8.87278 0.0879086C7.27877 0.158189 6.18289 0.416189 5.23354 0.785219C4.22534 1.16615 3.32291 1.7522 2.57272 2.52002C1.81085 3.27022 1.21908 4.1786 0.843869 5.17489C0.474611 6.1302 0.216839 7.22012 0.146559 8.81413C0.0703263 10.4201 0.0526989 10.9299 0.0526989 15.0029C0.0526989 19.076 0.0703263 19.5858 0.140607 21.1858C0.210887 22.7798 0.468887 23.8757 0.838146 24.8253C1.21908 25.8332 1.81085 26.7356 2.57272 27.4858C3.32291 28.2477 4.2313 28.8397 5.22758 29.2147C6.18289 29.584 7.27281 29.8417 8.86706 29.912C10.4668 29.9825 10.9768 29.9999 15.0499 29.9999C19.123 29.9999 19.6328 29.9825 21.2328 29.912C22.8268 29.8417 23.9226 29.584 24.872 29.2147C26.8882 28.4352 28.4822 26.8412 29.2617 24.8253C29.6307 23.8699 29.8887 22.7798 29.959 21.1858C30.0293 19.5858 30.0469 19.076 30.0469 15.0029C30.0469 10.9299 30.0409 10.4201 29.9707 8.82008ZM27.2691 21.0686C27.2045 22.5337 26.9584 23.3249 26.7533 23.8523C26.2492 25.1593 25.212 26.1965 23.905 26.7006C23.3776 26.9057 22.5807 27.1518 21.1213 27.2162C19.5389 27.2867 19.0644 27.3041 15.0616 27.3041C11.0588 27.3041 10.5783 27.2867 9.00167 27.2162C7.53654 27.1518 6.74537 26.9057 6.21792 26.7006C5.56754 26.4602 4.97554 26.0793 4.49502 25.5812C3.99687 25.0947 3.61594 24.5086 3.37557 23.8583C3.17045 23.3308 2.92435 22.5337 2.86003 21.0745C2.78952 19.4922 2.77212 19.0174 2.77212 15.0146C2.77212 11.0118 2.78952 10.5313 2.86003 8.95492C2.92435 7.48979 3.17045 6.69862 3.37557 6.17117C3.61594 5.52056 3.99687 4.92879 4.50097 4.44804C4.98721 3.9499 5.57326 3.56897 6.22387 3.32882C6.75132 3.1237 7.54844 2.87761 9.00762 2.81305C10.59 2.74277 11.0648 2.72514 15.0673 2.72514C19.076 2.72514 19.5506 2.74277 21.1272 2.81305C22.5923 2.87761 23.3835 3.1237 23.911 3.32882C24.5613 3.56897 25.1534 3.9499 25.6339 4.44804C26.132 4.93451 26.5129 5.52056 26.7533 6.17117C26.9584 6.69862 27.2045 7.49551 27.2691 8.95492C27.3394 10.5373 27.357 11.0118 27.357 15.0146C27.357 19.0174 27.3394 19.4862 27.2691 21.0686Z" fill="var(--fill-0, white)"/>
<path id="Vector_2" d="M15.0552 7.29639C10.8006 7.29639 7.34863 10.7481 7.34863 15.003C7.34863 19.2578 10.8006 22.7096 15.0552 22.7096C19.31 22.7096 22.7618 19.2578 22.7618 15.003C22.7618 10.7481 19.31 7.29639 15.0552 7.29639ZM15.0552 20.002C12.295 20.002 10.0561 17.7634 10.0561 15.003C10.0561 12.2426 12.295 10.0039 15.0552 10.0039C17.8156 10.0039 20.0543 12.2426 20.0543 15.003C20.0543 17.7634 17.8156 20.002 15.0552 20.002Z" fill="var(--fill-0, white)"/>
<path id="Vector_3" d="M24.8663 6.99165C24.8663 7.98519 24.0607 8.79078 23.0669 8.79078C22.0734 8.79078 21.2678 7.98519 21.2678 6.99165C21.2678 5.99788 22.0734 5.19251 23.0669 5.19251C24.0607 5.19251 24.8663 5.99788 24.8663 6.99165Z" fill="var(--fill-0, white)"/>
</g>
<defs>
<clipPath id="clip0_0_21">
<rect width="30" height="30" fill="white"/>
</clipPath>
</defs>
</svg>
